<?xml version="1.0" encoding="UTF-8" standalone="no"?>
<!DOCTYPE svg PUBLIC "-//W3C//DTD SVG 1.1//EN" "http://www.w3.org/Graphics/SVG/1.1/DTD/svg11.dtd">
<!-- Generated by graphviz version 2.40.1 (20161225.0304)
 -->
<!-- Title: G Pages: 1 -->
<svg width="363pt" height="260pt" viewBox="0.00 0.00 362.67 260.00" xmlns="http://www.w3.org/2000/svg" xmlns:xlink="http://www.w3.org/1999/xlink">
<g id="graph0" class="graph" transform="scale(1 1) rotate(0) translate(4 256)">
<title>G</title>
<polygon fill="#ffffff" stroke="transparent" points="-4,4 -4,-256 358.6659,-256 358.6659,4 -4,4"/>
<!-- pkg_rotate -->
<g id="node1" class="node">
<title>pkg_rotate</title>
<ellipse fill="none" stroke="#000000" cx="123.2299" cy="-90" rx="52.1694" ry="18"/>
<text text-anchor="middle" x="123.2299" y="-85.8" font-family="Times,serif" font-size="14.00" fill="#000000">pkg_rotate</text>
</g>
<!-- pkg_util -->
<g id="node2" class="node">
<title>pkg_util</title>
<ellipse fill="none" stroke="#000000" cx="43.2299" cy="-18" rx="43.461" ry="18"/>
<text text-anchor="middle" x="43.2299" y="-13.8" font-family="Times,serif" font-size="14.00" fill="#000000">pkg_util</text>
</g>
<!-- pkg_rotate&#45;&gt;pkg_util -->
<g id="edge1" class="edge">
<title>pkg_rotate-&gt;pkg_util</title>
<path fill="none" stroke="#000000" d="M104.271,-72.937C93.7593,-63.4765 80.5374,-51.5768 69.0892,-41.2734"/>
<polygon fill="#000000" stroke="#000000" points="71.2763,-38.5331 61.502,-34.4449 66.5936,-43.7361 71.2763,-38.5331"/>
</g>
<!-- pkg_log -->
<g id="node7" class="node">
<title>pkg_log</title>
<ellipse fill="none" stroke="#000000" cx="244.2299" cy="-18" rx="42.8829" ry="18"/>
<text text-anchor="middle" x="244.2299" y="-13.8" font-family="Times,serif" font-size="14.00" fill="#000000">pkg_log</text>
</g>
<!-- pkg_rotate&#45;&gt;pkg_log -->
<g id="edge8" class="edge">
<title>pkg_rotate-&gt;pkg_log</title>
<path fill="none" stroke="#000000" d="M149.4851,-74.3771C167.366,-63.7372 191.1977,-49.5563 210.4859,-38.0791"/>
<polygon fill="#000000" stroke="#000000" points="212.4624,-40.9757 219.2664,-32.8543 208.8829,-34.9602 212.4624,-40.9757"/>
</g>
<!-- pkg_process -->
<g id="node3" class="node">
<title>pkg_process</title>
<ellipse fill="none" stroke="#000000" cx="94.2299" cy="-162" rx="59.1141" ry="18"/>
<text text-anchor="middle" x="94.2299" y="-157.8" font-family="Times,serif" font-size="14.00" fill="#000000">pkg_process</text>
</g>
<!-- pkg_process&#45;&gt;pkg_rotate -->
<g id="edge7" class="edge">
<title>pkg_process-&gt;pkg_rotate</title>
<path fill="none" stroke="#000000" d="M101.5478,-143.8314C104.7663,-135.8406 108.6163,-126.2819 112.1731,-117.4514"/>
<polygon fill="#000000" stroke="#000000" points="115.5251,-118.4969 116.0147,-107.9134 109.032,-115.8816 115.5251,-118.4969"/>
</g>
<!-- pkg_process&#45;&gt;pkg_util -->
<g id="edge2" class="edge">
<title>pkg_process-&gt;pkg_util</title>
<path fill="none" stroke="#000000" d="M81.711,-144.265C75.0442,-134.0754 67.2144,-120.7941 62.2299,-108 54.4277,-87.9736 49.5777,-64.1291 46.7323,-46.0161"/>
<polygon fill="#000000" stroke="#000000" points="50.1905,-45.4748 45.2815,-36.0859 43.264,-46.4869 50.1905,-45.4748"/>
</g>
<!-- pkg_config -->
<g id="node6" class="node">
<title>pkg_config</title>
<ellipse fill="none" stroke="#000000" cx="286.2299" cy="-90" rx="55.042" ry="18"/>
<text text-anchor="middle" x="286.2299" y="-85.8" font-family="Times,serif" font-size="14.00" fill="#000000">pkg_config</text>
</g>
<!-- pkg_process&#45;&gt;pkg_config -->
<g id="edge11" class="edge">
<title>pkg_process-&gt;pkg_config</title>
<path fill="none" stroke="#000000" d="M131.7052,-147.9468C162.7945,-136.2882 207.126,-119.6639 240.3389,-107.2091"/>
<polygon fill="#000000" stroke="#000000" points="241.6916,-110.4399 249.826,-103.6515 239.2337,-103.8856 241.6916,-110.4399"/>
</g>
<!-- pkg_process&#45;&gt;pkg_log -->
<g id="edge6" class="edge">
<title>pkg_process-&gt;pkg_log</title>
<path fill="none" stroke="#000000" d="M126.999,-146.8487C145.201,-137.3843 167.4816,-123.9697 184.2299,-108 203.5012,-89.6245 219.8319,-63.9933 230.5672,-44.7817"/>
<polygon fill="#000000" stroke="#000000" points="233.6796,-46.3843 235.3761,-35.9262 227.5281,-43.0438 233.6796,-46.3843"/>
</g>
<!-- cmd -->
<g id="node4" class="node">
<title>cmd</title>
<ellipse fill="none" stroke="#000000" cx="237.2299" cy="-234" rx="27.8286" ry="18"/>
<text text-anchor="middle" x="237.2299" y="-229.8" font-family="Times,serif" font-size="14.00" fill="#000000">cmd</text>
</g>
<!-- cmd&#45;&gt;pkg_util -->
<g id="edge12" class="edge">
<title>cmd-&gt;pkg_util</title>
<path fill="none" stroke="#000000" d="M209.6525,-231.083C157.733,-224.9618 48.6635,-208.898 26.2299,-180 -4.0458,-141.0004 14.8797,-79.8495 29.9792,-44.8991"/>
<polygon fill="#000000" stroke="#000000" points="33.1728,-46.3311 34.0925,-35.7762 26.7915,-43.4538 33.1728,-46.3311"/>
</g>
<!-- cmd&#45;&gt;pkg_process -->
<g id="edge10" class="edge">
<title>cmd-&gt;pkg_process</title>
<path fill="none" stroke="#000000" d="M215.1995,-222.9078C193.6142,-212.0397 160.2306,-195.2312 133.9969,-182.0226"/>
<polygon fill="#000000" stroke="#000000" points="135.5527,-178.8873 125.047,-177.5163 132.4047,-185.1396 135.5527,-178.8873"/>
</g>
<!-- pkg_buildinfo -->
<g id="node5" class="node">
<title>pkg_buildinfo</title>
<ellipse fill="none" stroke="#000000" cx="237.2299" cy="-162" rx="65.518" ry="18"/>
<text text-anchor="middle" x="237.2299" y="-157.8" font-family="Times,serif" font-size="14.00" fill="#000000">pkg_buildinfo</text>
</g>
<!-- cmd&#45;&gt;pkg_buildinfo -->
<g id="edge3" class="edge">
<title>cmd-&gt;pkg_buildinfo</title>
<path fill="none" stroke="#000000" d="M237.2299,-215.8314C237.2299,-208.131 237.2299,-198.9743 237.2299,-190.4166"/>
<polygon fill="#000000" stroke="#000000" points="240.73,-190.4132 237.2299,-180.4133 233.73,-190.4133 240.73,-190.4132"/>
</g>
<!-- cmd&#45;&gt;pkg_config -->
<g id="edge9" class="edge">
<title>cmd-&gt;pkg_config</title>
<path fill="none" stroke="#000000" d="M260.9565,-224.206C278.6578,-215.4811 301.5502,-200.8492 312.2299,-180 322.5691,-159.8153 313.931,-134.9174 303.9216,-116.4294"/>
<polygon fill="#000000" stroke="#000000" points="306.8726,-114.5417 298.8158,-107.6613 300.8234,-118.0642 306.8726,-114.5417"/>
</g>
<!-- cmd&#45;&gt;pkg_log -->
<g id="edge5" class="edge">
<title>cmd-&gt;pkg_log</title>
<path fill="none" stroke="#000000" d="M261.5421,-225.3766C282.1331,-216.8781 310.9797,-201.9582 328.2299,-180 348.9005,-153.6878 345.2867,-141.0934 350.2299,-108 352.5935,-92.1756 358.5903,-85.6419 350.2299,-72 337.3508,-50.9851 313.444,-37.8282 291.5899,-29.7699"/>
<polygon fill="#000000" stroke="#000000" points="292.6596,-26.4368 282.0651,-26.5184 290.3981,-33.0614 292.6596,-26.4368"/>
</g>
<!-- pkg_config&#45;&gt;pkg_log -->
<g id="edge4" class="edge">
<title>pkg_config-&gt;pkg_log</title>
<path fill="none" stroke="#000000" d="M275.8478,-72.2022C270.9652,-63.832 265.0433,-53.6802 259.6506,-44.4356"/>
<polygon fill="#000000" stroke="#000000" points="262.5545,-42.4673 254.4925,-35.593 256.508,-45.9944 262.5545,-42.4673"/>
</g>
</g>
</svg>